<mxfile host="www.draw.io" modified="2019-11-21T16:33:58.153Z" agent="Mozilla/5.0 (Macintosh; Intel Mac OS X 10_15_1) AppleWebKit/605.1.15 (KHTML, like Gecko) Version/13.0.3 Safari/605.1.15" etag="uemOc69SEwotwKav-jAT" version="12.2.7" type="github" pages="1">
  <diagram id="TeNlqGiva7IvxflfD58E" name="Page-1">
    <mxGraphModel dx="932" dy="593" grid="1" gridSize="10" guides="1" tooltips="1" connect="1" arrows="1" fold="1" page="1" pageScale="1" pageWidth="1169" pageHeight="827" math="0" shadow="0">
      <root>
        <mxCell id="0"/>
        <mxCell id="1" parent="0"/>
        <mxCell id="iRaWRqL0e0JW9HZ2cHJ_-2" value="" style="shape=image;html=1;verticalAlign=top;verticalLabelPosition=bottom;labelBackgroundColor=#ffffff;imageAspect=0;aspect=fixed;image=https://cdn4.iconfinder.com/data/icons/computer-and-technologies-1/800/pc-128.png;flipH=1;" parent="1" vertex="1">
          <mxGeometry x="141.5" y="80" width="128" height="128" as="geometry"/>
        </mxCell>
        <mxCell id="iRaWRqL0e0JW9HZ2cHJ_-5" value="" style="shape=image;html=1;verticalAlign=top;verticalLabelPosition=bottom;labelBackgroundColor=#ffffff;imageAspect=0;aspect=fixed;image=https://cdn4.iconfinder.com/data/icons/logos-and-brands/512/267_Python_logo-128.png;fillColor=#B3B3B3;" parent="1" vertex="1">
          <mxGeometry x="170" y="124" width="32" height="32" as="geometry"/>
        </mxCell>
        <mxCell id="i9u_ca7h2w0VZ7ICDSgy-1" value="RF 1" style="text;html=1;strokeColor=none;fillColor=none;align=center;verticalAlign=middle;whiteSpace=wrap;rounded=0;fontStyle=1" parent="1" vertex="1">
          <mxGeometry x="290" y="110" width="40" height="20" as="geometry"/>
        </mxCell>
        <mxCell id="i9u_ca7h2w0VZ7ICDSgy-2" value="" style="shape=image;html=1;verticalAlign=top;verticalLabelPosition=bottom;labelBackgroundColor=#ffffff;imageAspect=0;aspect=fixed;image=https://cdn4.iconfinder.com/data/icons/computer-and-technologies-1/800/pc-128.png" parent="1" vertex="1">
          <mxGeometry x="590" y="80" width="128" height="128" as="geometry"/>
        </mxCell>
        <mxCell id="i9u_ca7h2w0VZ7ICDSgy-6" value="RF 2" style="text;html=1;strokeColor=none;fillColor=none;align=center;verticalAlign=middle;whiteSpace=wrap;rounded=0;fontStyle=1" parent="1" vertex="1">
          <mxGeometry x="535" y="109" width="40" height="20" as="geometry"/>
        </mxCell>
        <mxCell id="i9u_ca7h2w0VZ7ICDSgy-10" value="" style="rounded=0;whiteSpace=wrap;html=1;strokeWidth=2;glass=0;shadow=0;comic=0;" parent="1" vertex="1">
          <mxGeometry x="120" y="450" width="640" height="384" as="geometry"/>
        </mxCell>
        <mxCell id="2vlhUb15L5bQYwvKjpp_-16" value="" style="group" vertex="1" connectable="0" parent="1">
          <mxGeometry x="500" y="110" width="89.72000000000003" height="56" as="geometry"/>
        </mxCell>
        <mxCell id="2vlhUb15L5bQYwvKjpp_-12" value="" style="fontColor=#0066CC;verticalAlign=top;verticalLabelPosition=bottom;labelPosition=center;align=center;html=1;outlineConnect=0;fillColor=#000000;strokeColor=#000000;gradientColor=none;gradientDirection=north;strokeWidth=2;shape=mxgraph.networks.usb_stick;direction=south;aspect=fixed;flipH=0;" vertex="1" parent="2vlhUb15L5bQYwvKjpp_-16">
          <mxGeometry x="10" y="25" width="79.72" height="31" as="geometry"/>
        </mxCell>
        <mxCell id="2vlhUb15L5bQYwvKjpp_-13" value="" style="shape=image;html=1;verticalAlign=top;verticalLabelPosition=bottom;labelBackgroundColor=#ffffff;imageAspect=0;aspect=fixed;image=https://cdn4.iconfinder.com/data/icons/vecico-connectivity/288/wifi_Symbol-128.png;strokeColor=#000000;fillColor=#000000;" vertex="1" parent="2vlhUb15L5bQYwvKjpp_-16">
          <mxGeometry width="32" height="32" as="geometry"/>
        </mxCell>
        <mxCell id="2vlhUb15L5bQYwvKjpp_-20" value="" style="group" vertex="1" connectable="0" parent="1">
          <mxGeometry x="269.5" y="110" width="92" height="56" as="geometry"/>
        </mxCell>
        <mxCell id="2vlhUb15L5bQYwvKjpp_-18" value="" style="fontColor=#0066CC;verticalAlign=top;verticalLabelPosition=bottom;labelPosition=center;align=center;html=1;outlineConnect=0;fillColor=#000000;strokeColor=#000000;gradientColor=none;gradientDirection=north;strokeWidth=2;shape=mxgraph.networks.usb_stick;direction=south;aspect=fixed;flipH=1;" vertex="1" parent="2vlhUb15L5bQYwvKjpp_-20">
          <mxGeometry y="25" width="79.72" height="31" as="geometry"/>
        </mxCell>
        <mxCell id="2vlhUb15L5bQYwvKjpp_-19" value="" style="shape=image;html=1;verticalAlign=top;verticalLabelPosition=bottom;labelBackgroundColor=#ffffff;imageAspect=0;aspect=fixed;image=https://cdn4.iconfinder.com/data/icons/vecico-connectivity/288/wifi_Symbol-128.png;strokeColor=#000000;fillColor=#000000;flipH=1;" vertex="1" parent="2vlhUb15L5bQYwvKjpp_-20">
          <mxGeometry x="60" width="32" height="32" as="geometry"/>
        </mxCell>
        <mxCell id="2vlhUb15L5bQYwvKjpp_-21" value="" style="shape=image;html=1;verticalAlign=top;verticalLabelPosition=bottom;labelBackgroundColor=#ffffff;imageAspect=0;aspect=fixed;image=https://cdn4.iconfinder.com/data/icons/logos-and-brands/512/267_Python_logo-128.png;fillColor=#B3B3B3;" vertex="1" parent="1">
          <mxGeometry x="660" y="124" width="32" height="32" as="geometry"/>
        </mxCell>
        <mxCell id="2vlhUb15L5bQYwvKjpp_-22" value="" style="group" vertex="1" connectable="0" parent="1">
          <mxGeometry x="142" y="472" width="596" height="340" as="geometry"/>
        </mxCell>
        <mxCell id="i9u_ca7h2w0VZ7ICDSgy-34" value="" style="group" parent="2vlhUb15L5bQYwvKjpp_-22" vertex="1" connectable="0">
          <mxGeometry width="596" height="20" as="geometry"/>
        </mxCell>
        <mxCell id="i9u_ca7h2w0VZ7ICDSgy-11" value="" style="aspect=fixed;perimeter=ellipsePerimeter;html=1;align=center;shadow=0;dashed=0;fontColor=#4277BB;labelBackgroundColor=#ffffff;fontSize=12;spacingTop=3;image;image=img/lib/ibm/users/sensor.svg;strokeWidth=2;" parent="i9u_ca7h2w0VZ7ICDSgy-34" vertex="1">
          <mxGeometry x="256" width="20" height="20" as="geometry"/>
        </mxCell>
        <mxCell id="i9u_ca7h2w0VZ7ICDSgy-12" value="" style="aspect=fixed;perimeter=ellipsePerimeter;html=1;align=center;shadow=0;dashed=0;fontColor=#4277BB;labelBackgroundColor=#ffffff;fontSize=12;spacingTop=3;image;image=img/lib/ibm/users/sensor.svg;strokeWidth=2;" parent="i9u_ca7h2w0VZ7ICDSgy-34" vertex="1">
          <mxGeometry width="20" height="20" as="geometry"/>
        </mxCell>
        <mxCell id="i9u_ca7h2w0VZ7ICDSgy-13" value="" style="aspect=fixed;perimeter=ellipsePerimeter;html=1;align=center;shadow=0;dashed=0;fontColor=#4277BB;labelBackgroundColor=#ffffff;fontSize=12;spacingTop=3;image;image=img/lib/ibm/users/sensor.svg;strokeWidth=2;" parent="i9u_ca7h2w0VZ7ICDSgy-34" vertex="1">
          <mxGeometry x="64" width="20" height="20" as="geometry"/>
        </mxCell>
        <mxCell id="i9u_ca7h2w0VZ7ICDSgy-14" value="" style="aspect=fixed;perimeter=ellipsePerimeter;html=1;align=center;shadow=0;dashed=0;fontColor=#4277BB;labelBackgroundColor=#ffffff;fontSize=12;spacingTop=3;image;image=img/lib/ibm/users/sensor.svg;strokeWidth=2;" parent="i9u_ca7h2w0VZ7ICDSgy-34" vertex="1">
          <mxGeometry x="128" width="20" height="20" as="geometry"/>
        </mxCell>
        <mxCell id="i9u_ca7h2w0VZ7ICDSgy-15" value="" style="aspect=fixed;perimeter=ellipsePerimeter;html=1;align=center;shadow=0;dashed=0;fontColor=#4277BB;labelBackgroundColor=#ffffff;fontSize=12;spacingTop=3;image;image=img/lib/ibm/users/sensor.svg;strokeWidth=2;" parent="i9u_ca7h2w0VZ7ICDSgy-34" vertex="1">
          <mxGeometry x="192" width="20" height="20" as="geometry"/>
        </mxCell>
        <mxCell id="i9u_ca7h2w0VZ7ICDSgy-16" value="" style="aspect=fixed;perimeter=ellipsePerimeter;html=1;align=center;shadow=0;dashed=0;fontColor=#4277BB;labelBackgroundColor=#ffffff;fontSize=12;spacingTop=3;image;image=img/lib/ibm/users/sensor.svg;strokeWidth=2;" parent="i9u_ca7h2w0VZ7ICDSgy-34" vertex="1">
          <mxGeometry x="576" width="20" height="20" as="geometry"/>
        </mxCell>
        <mxCell id="i9u_ca7h2w0VZ7ICDSgy-17" value="" style="aspect=fixed;perimeter=ellipsePerimeter;html=1;align=center;shadow=0;dashed=0;fontColor=#4277BB;labelBackgroundColor=#ffffff;fontSize=12;spacingTop=3;image;image=img/lib/ibm/users/sensor.svg;strokeWidth=2;" parent="i9u_ca7h2w0VZ7ICDSgy-34" vertex="1">
          <mxGeometry x="320" width="20" height="20" as="geometry"/>
        </mxCell>
        <mxCell id="i9u_ca7h2w0VZ7ICDSgy-18" value="" style="aspect=fixed;perimeter=ellipsePerimeter;html=1;align=center;shadow=0;dashed=0;fontColor=#4277BB;labelBackgroundColor=#ffffff;fontSize=12;spacingTop=3;image;image=img/lib/ibm/users/sensor.svg;strokeWidth=2;" parent="i9u_ca7h2w0VZ7ICDSgy-34" vertex="1">
          <mxGeometry x="384" width="20" height="20" as="geometry"/>
        </mxCell>
        <mxCell id="i9u_ca7h2w0VZ7ICDSgy-19" value="" style="aspect=fixed;perimeter=ellipsePerimeter;html=1;align=center;shadow=0;dashed=0;fontColor=#4277BB;labelBackgroundColor=#ffffff;fontSize=12;spacingTop=3;image;image=img/lib/ibm/users/sensor.svg;strokeWidth=2;" parent="i9u_ca7h2w0VZ7ICDSgy-34" vertex="1">
          <mxGeometry x="448" width="20" height="20" as="geometry"/>
        </mxCell>
        <mxCell id="i9u_ca7h2w0VZ7ICDSgy-20" value="" style="aspect=fixed;perimeter=ellipsePerimeter;html=1;align=center;shadow=0;dashed=0;fontColor=#4277BB;labelBackgroundColor=#ffffff;fontSize=12;spacingTop=3;image;image=img/lib/ibm/users/sensor.svg;strokeWidth=2;" parent="i9u_ca7h2w0VZ7ICDSgy-34" vertex="1">
          <mxGeometry x="512" width="20" height="20" as="geometry"/>
        </mxCell>
        <mxCell id="i9u_ca7h2w0VZ7ICDSgy-35" value="" style="group" parent="2vlhUb15L5bQYwvKjpp_-22" vertex="1" connectable="0">
          <mxGeometry y="64" width="596" height="20" as="geometry"/>
        </mxCell>
        <mxCell id="i9u_ca7h2w0VZ7ICDSgy-36" value="" style="aspect=fixed;perimeter=ellipsePerimeter;html=1;align=center;shadow=0;dashed=0;fontColor=#4277BB;labelBackgroundColor=#ffffff;fontSize=12;spacingTop=3;image;image=img/lib/ibm/users/sensor.svg;strokeWidth=2;" parent="i9u_ca7h2w0VZ7ICDSgy-35" vertex="1">
          <mxGeometry x="256" width="20" height="20" as="geometry"/>
        </mxCell>
        <mxCell id="i9u_ca7h2w0VZ7ICDSgy-37" value="" style="aspect=fixed;perimeter=ellipsePerimeter;html=1;align=center;shadow=0;dashed=0;fontColor=#4277BB;labelBackgroundColor=#ffffff;fontSize=12;spacingTop=3;image;image=img/lib/ibm/users/sensor.svg;strokeWidth=2;" parent="i9u_ca7h2w0VZ7ICDSgy-35" vertex="1">
          <mxGeometry width="20" height="20" as="geometry"/>
        </mxCell>
        <mxCell id="i9u_ca7h2w0VZ7ICDSgy-38" value="" style="aspect=fixed;perimeter=ellipsePerimeter;html=1;align=center;shadow=0;dashed=0;fontColor=#4277BB;labelBackgroundColor=#ffffff;fontSize=12;spacingTop=3;image;image=img/lib/ibm/users/sensor.svg;strokeWidth=2;" parent="i9u_ca7h2w0VZ7ICDSgy-35" vertex="1">
          <mxGeometry x="64" width="20" height="20" as="geometry"/>
        </mxCell>
        <mxCell id="i9u_ca7h2w0VZ7ICDSgy-39" value="" style="aspect=fixed;perimeter=ellipsePerimeter;html=1;align=center;shadow=0;dashed=0;fontColor=#4277BB;labelBackgroundColor=#ffffff;fontSize=12;spacingTop=3;image;image=img/lib/ibm/users/sensor.svg;strokeWidth=2;" parent="i9u_ca7h2w0VZ7ICDSgy-35" vertex="1">
          <mxGeometry x="128" width="20" height="20" as="geometry"/>
        </mxCell>
        <mxCell id="i9u_ca7h2w0VZ7ICDSgy-40" value="" style="aspect=fixed;perimeter=ellipsePerimeter;html=1;align=center;shadow=0;dashed=0;fontColor=#4277BB;labelBackgroundColor=#ffffff;fontSize=12;spacingTop=3;image;image=img/lib/ibm/users/sensor.svg;strokeWidth=2;" parent="i9u_ca7h2w0VZ7ICDSgy-35" vertex="1">
          <mxGeometry x="192" width="20" height="20" as="geometry"/>
        </mxCell>
        <mxCell id="i9u_ca7h2w0VZ7ICDSgy-41" value="" style="aspect=fixed;perimeter=ellipsePerimeter;html=1;align=center;shadow=0;dashed=0;fontColor=#4277BB;labelBackgroundColor=#ffffff;fontSize=12;spacingTop=3;image;image=img/lib/ibm/users/sensor.svg;strokeWidth=2;" parent="i9u_ca7h2w0VZ7ICDSgy-35" vertex="1">
          <mxGeometry x="576" width="20" height="20" as="geometry"/>
        </mxCell>
        <mxCell id="i9u_ca7h2w0VZ7ICDSgy-42" value="" style="aspect=fixed;perimeter=ellipsePerimeter;html=1;align=center;shadow=0;dashed=0;fontColor=#4277BB;labelBackgroundColor=#ffffff;fontSize=12;spacingTop=3;image;image=img/lib/ibm/users/sensor.svg;strokeWidth=2;" parent="i9u_ca7h2w0VZ7ICDSgy-35" vertex="1">
          <mxGeometry x="320" width="20" height="20" as="geometry"/>
        </mxCell>
        <mxCell id="i9u_ca7h2w0VZ7ICDSgy-43" value="" style="aspect=fixed;perimeter=ellipsePerimeter;html=1;align=center;shadow=0;dashed=0;fontColor=#4277BB;labelBackgroundColor=#ffffff;fontSize=12;spacingTop=3;image;image=img/lib/ibm/users/sensor.svg;strokeWidth=2;" parent="i9u_ca7h2w0VZ7ICDSgy-35" vertex="1">
          <mxGeometry x="384" width="20" height="20" as="geometry"/>
        </mxCell>
        <mxCell id="i9u_ca7h2w0VZ7ICDSgy-44" value="" style="aspect=fixed;perimeter=ellipsePerimeter;html=1;align=center;shadow=0;dashed=0;fontColor=#4277BB;labelBackgroundColor=#ffffff;fontSize=12;spacingTop=3;image;image=img/lib/ibm/users/sensor.svg;strokeWidth=2;" parent="i9u_ca7h2w0VZ7ICDSgy-35" vertex="1">
          <mxGeometry x="448" width="20" height="20" as="geometry"/>
        </mxCell>
        <mxCell id="i9u_ca7h2w0VZ7ICDSgy-45" value="" style="aspect=fixed;perimeter=ellipsePerimeter;html=1;align=center;shadow=0;dashed=0;fontColor=#4277BB;labelBackgroundColor=#ffffff;fontSize=12;spacingTop=3;image;image=img/lib/ibm/users/sensor.svg;strokeWidth=2;" parent="i9u_ca7h2w0VZ7ICDSgy-35" vertex="1">
          <mxGeometry x="512" width="20" height="20" as="geometry"/>
        </mxCell>
        <mxCell id="i9u_ca7h2w0VZ7ICDSgy-46" value="" style="group" parent="2vlhUb15L5bQYwvKjpp_-22" vertex="1" connectable="0">
          <mxGeometry y="128" width="596" height="20" as="geometry"/>
        </mxCell>
        <mxCell id="i9u_ca7h2w0VZ7ICDSgy-47" value="" style="aspect=fixed;perimeter=ellipsePerimeter;html=1;align=center;shadow=0;dashed=0;fontColor=#4277BB;labelBackgroundColor=#ffffff;fontSize=12;spacingTop=3;image;image=img/lib/ibm/users/sensor.svg;strokeWidth=2;" parent="i9u_ca7h2w0VZ7ICDSgy-46" vertex="1">
          <mxGeometry x="256" width="20" height="20" as="geometry"/>
        </mxCell>
        <mxCell id="i9u_ca7h2w0VZ7ICDSgy-48" value="" style="aspect=fixed;perimeter=ellipsePerimeter;html=1;align=center;shadow=0;dashed=0;fontColor=#4277BB;labelBackgroundColor=#ffffff;fontSize=12;spacingTop=3;image;image=img/lib/ibm/users/sensor.svg;strokeWidth=2;" parent="i9u_ca7h2w0VZ7ICDSgy-46" vertex="1">
          <mxGeometry width="20" height="20" as="geometry"/>
        </mxCell>
        <mxCell id="i9u_ca7h2w0VZ7ICDSgy-49" value="" style="aspect=fixed;perimeter=ellipsePerimeter;html=1;align=center;shadow=0;dashed=0;fontColor=#4277BB;labelBackgroundColor=#ffffff;fontSize=12;spacingTop=3;image;image=img/lib/ibm/users/sensor.svg;strokeWidth=2;" parent="i9u_ca7h2w0VZ7ICDSgy-46" vertex="1">
          <mxGeometry x="64" width="20" height="20" as="geometry"/>
        </mxCell>
        <mxCell id="i9u_ca7h2w0VZ7ICDSgy-50" value="" style="aspect=fixed;perimeter=ellipsePerimeter;html=1;align=center;shadow=0;dashed=0;fontColor=#4277BB;labelBackgroundColor=#ffffff;fontSize=12;spacingTop=3;image;image=img/lib/ibm/users/sensor.svg;strokeWidth=2;" parent="i9u_ca7h2w0VZ7ICDSgy-46" vertex="1">
          <mxGeometry x="128" width="20" height="20" as="geometry"/>
        </mxCell>
        <mxCell id="i9u_ca7h2w0VZ7ICDSgy-51" value="" style="aspect=fixed;perimeter=ellipsePerimeter;html=1;align=center;shadow=0;dashed=0;fontColor=#4277BB;labelBackgroundColor=#ffffff;fontSize=12;spacingTop=3;image;image=img/lib/ibm/users/sensor.svg;strokeWidth=2;" parent="i9u_ca7h2w0VZ7ICDSgy-46" vertex="1">
          <mxGeometry x="192" width="20" height="20" as="geometry"/>
        </mxCell>
        <mxCell id="i9u_ca7h2w0VZ7ICDSgy-52" value="" style="aspect=fixed;perimeter=ellipsePerimeter;html=1;align=center;shadow=0;dashed=0;fontColor=#4277BB;labelBackgroundColor=#ffffff;fontSize=12;spacingTop=3;image;image=img/lib/ibm/users/sensor.svg;strokeWidth=2;" parent="i9u_ca7h2w0VZ7ICDSgy-46" vertex="1">
          <mxGeometry x="576" width="20" height="20" as="geometry"/>
        </mxCell>
        <mxCell id="i9u_ca7h2w0VZ7ICDSgy-53" value="" style="aspect=fixed;perimeter=ellipsePerimeter;html=1;align=center;shadow=0;dashed=0;fontColor=#4277BB;labelBackgroundColor=#ffffff;fontSize=12;spacingTop=3;image;image=img/lib/ibm/users/sensor.svg;strokeWidth=2;" parent="i9u_ca7h2w0VZ7ICDSgy-46" vertex="1">
          <mxGeometry x="320" width="20" height="20" as="geometry"/>
        </mxCell>
        <mxCell id="i9u_ca7h2w0VZ7ICDSgy-54" value="" style="aspect=fixed;perimeter=ellipsePerimeter;html=1;align=center;shadow=0;dashed=0;fontColor=#4277BB;labelBackgroundColor=#ffffff;fontSize=12;spacingTop=3;image;image=img/lib/ibm/users/sensor.svg;strokeWidth=2;" parent="i9u_ca7h2w0VZ7ICDSgy-46" vertex="1">
          <mxGeometry x="384" width="20" height="20" as="geometry"/>
        </mxCell>
        <mxCell id="i9u_ca7h2w0VZ7ICDSgy-55" value="" style="aspect=fixed;perimeter=ellipsePerimeter;html=1;align=center;shadow=0;dashed=0;fontColor=#4277BB;labelBackgroundColor=#ffffff;fontSize=12;spacingTop=3;image;image=img/lib/ibm/users/sensor.svg;strokeWidth=2;" parent="i9u_ca7h2w0VZ7ICDSgy-46" vertex="1">
          <mxGeometry x="448" width="20" height="20" as="geometry"/>
        </mxCell>
        <mxCell id="i9u_ca7h2w0VZ7ICDSgy-56" value="" style="aspect=fixed;perimeter=ellipsePerimeter;html=1;align=center;shadow=0;dashed=0;fontColor=#4277BB;labelBackgroundColor=#ffffff;fontSize=12;spacingTop=3;image;image=img/lib/ibm/users/sensor.svg;strokeWidth=2;" parent="i9u_ca7h2w0VZ7ICDSgy-46" vertex="1">
          <mxGeometry x="512" width="20" height="20" as="geometry"/>
        </mxCell>
        <mxCell id="i9u_ca7h2w0VZ7ICDSgy-57" value="" style="group" parent="2vlhUb15L5bQYwvKjpp_-22" vertex="1" connectable="0">
          <mxGeometry y="192" width="596" height="20" as="geometry"/>
        </mxCell>
        <mxCell id="i9u_ca7h2w0VZ7ICDSgy-58" value="" style="aspect=fixed;perimeter=ellipsePerimeter;html=1;align=center;shadow=0;dashed=0;fontColor=#4277BB;labelBackgroundColor=#ffffff;fontSize=12;spacingTop=3;image;image=img/lib/ibm/users/sensor.svg;strokeWidth=2;" parent="i9u_ca7h2w0VZ7ICDSgy-57" vertex="1">
          <mxGeometry x="256" width="20" height="20" as="geometry"/>
        </mxCell>
        <mxCell id="i9u_ca7h2w0VZ7ICDSgy-59" value="" style="aspect=fixed;perimeter=ellipsePerimeter;html=1;align=center;shadow=0;dashed=0;fontColor=#4277BB;labelBackgroundColor=#ffffff;fontSize=12;spacingTop=3;image;image=img/lib/ibm/users/sensor.svg;strokeWidth=2;" parent="i9u_ca7h2w0VZ7ICDSgy-57" vertex="1">
          <mxGeometry width="20" height="20" as="geometry"/>
        </mxCell>
        <mxCell id="i9u_ca7h2w0VZ7ICDSgy-60" value="" style="aspect=fixed;perimeter=ellipsePerimeter;html=1;align=center;shadow=0;dashed=0;fontColor=#4277BB;labelBackgroundColor=#ffffff;fontSize=12;spacingTop=3;image;image=img/lib/ibm/users/sensor.svg;strokeWidth=2;" parent="i9u_ca7h2w0VZ7ICDSgy-57" vertex="1">
          <mxGeometry x="64" width="20" height="20" as="geometry"/>
        </mxCell>
        <mxCell id="i9u_ca7h2w0VZ7ICDSgy-61" value="" style="aspect=fixed;perimeter=ellipsePerimeter;html=1;align=center;shadow=0;dashed=0;fontColor=#4277BB;labelBackgroundColor=#ffffff;fontSize=12;spacingTop=3;image;image=img/lib/ibm/users/sensor.svg;strokeWidth=2;" parent="i9u_ca7h2w0VZ7ICDSgy-57" vertex="1">
          <mxGeometry x="128" width="20" height="20" as="geometry"/>
        </mxCell>
        <mxCell id="i9u_ca7h2w0VZ7ICDSgy-62" value="" style="aspect=fixed;perimeter=ellipsePerimeter;html=1;align=center;shadow=0;dashed=0;fontColor=#4277BB;labelBackgroundColor=#ffffff;fontSize=12;spacingTop=3;image;image=img/lib/ibm/users/sensor.svg;strokeWidth=2;" parent="i9u_ca7h2w0VZ7ICDSgy-57" vertex="1">
          <mxGeometry x="192" width="20" height="20" as="geometry"/>
        </mxCell>
        <mxCell id="i9u_ca7h2w0VZ7ICDSgy-63" value="" style="aspect=fixed;perimeter=ellipsePerimeter;html=1;align=center;shadow=0;dashed=0;fontColor=#4277BB;labelBackgroundColor=#ffffff;fontSize=12;spacingTop=3;image;image=img/lib/ibm/users/sensor.svg;strokeWidth=2;" parent="i9u_ca7h2w0VZ7ICDSgy-57" vertex="1">
          <mxGeometry x="576" width="20" height="20" as="geometry"/>
        </mxCell>
        <mxCell id="i9u_ca7h2w0VZ7ICDSgy-64" value="" style="aspect=fixed;perimeter=ellipsePerimeter;html=1;align=center;shadow=0;dashed=0;fontColor=#4277BB;labelBackgroundColor=#ffffff;fontSize=12;spacingTop=3;image;image=img/lib/ibm/users/sensor.svg;strokeWidth=2;" parent="i9u_ca7h2w0VZ7ICDSgy-57" vertex="1">
          <mxGeometry x="320" width="20" height="20" as="geometry"/>
        </mxCell>
        <mxCell id="i9u_ca7h2w0VZ7ICDSgy-65" value="" style="aspect=fixed;perimeter=ellipsePerimeter;html=1;align=center;shadow=0;dashed=0;fontColor=#4277BB;labelBackgroundColor=#ffffff;fontSize=12;spacingTop=3;image;image=img/lib/ibm/users/sensor.svg;strokeWidth=2;" parent="i9u_ca7h2w0VZ7ICDSgy-57" vertex="1">
          <mxGeometry x="384" width="20" height="20" as="geometry"/>
        </mxCell>
        <mxCell id="i9u_ca7h2w0VZ7ICDSgy-66" value="" style="aspect=fixed;perimeter=ellipsePerimeter;html=1;align=center;shadow=0;dashed=0;fontColor=#4277BB;labelBackgroundColor=#ffffff;fontSize=12;spacingTop=3;image;image=img/lib/ibm/users/sensor.svg;strokeWidth=2;" parent="i9u_ca7h2w0VZ7ICDSgy-57" vertex="1">
          <mxGeometry x="448" width="20" height="20" as="geometry"/>
        </mxCell>
        <mxCell id="i9u_ca7h2w0VZ7ICDSgy-67" value="" style="aspect=fixed;perimeter=ellipsePerimeter;html=1;align=center;shadow=0;dashed=0;fontColor=#4277BB;labelBackgroundColor=#ffffff;fontSize=12;spacingTop=3;image;image=img/lib/ibm/users/sensor.svg;strokeWidth=2;" parent="i9u_ca7h2w0VZ7ICDSgy-57" vertex="1">
          <mxGeometry x="512" width="20" height="20" as="geometry"/>
        </mxCell>
        <mxCell id="i9u_ca7h2w0VZ7ICDSgy-68" value="" style="group" parent="2vlhUb15L5bQYwvKjpp_-22" vertex="1" connectable="0">
          <mxGeometry y="256" width="596" height="20" as="geometry"/>
        </mxCell>
        <mxCell id="i9u_ca7h2w0VZ7ICDSgy-69" value="" style="aspect=fixed;perimeter=ellipsePerimeter;html=1;align=center;shadow=0;dashed=0;fontColor=#4277BB;labelBackgroundColor=#ffffff;fontSize=12;spacingTop=3;image;image=img/lib/ibm/users/sensor.svg;strokeWidth=2;" parent="i9u_ca7h2w0VZ7ICDSgy-68" vertex="1">
          <mxGeometry x="256" width="20" height="20" as="geometry"/>
        </mxCell>
        <mxCell id="i9u_ca7h2w0VZ7ICDSgy-70" value="" style="aspect=fixed;perimeter=ellipsePerimeter;html=1;align=center;shadow=0;dashed=0;fontColor=#4277BB;labelBackgroundColor=#ffffff;fontSize=12;spacingTop=3;image;image=img/lib/ibm/users/sensor.svg;strokeWidth=2;" parent="i9u_ca7h2w0VZ7ICDSgy-68" vertex="1">
          <mxGeometry width="20" height="20" as="geometry"/>
        </mxCell>
        <mxCell id="i9u_ca7h2w0VZ7ICDSgy-71" value="" style="aspect=fixed;perimeter=ellipsePerimeter;html=1;align=center;shadow=0;dashed=0;fontColor=#4277BB;labelBackgroundColor=#ffffff;fontSize=12;spacingTop=3;image;image=img/lib/ibm/users/sensor.svg;strokeWidth=2;" parent="i9u_ca7h2w0VZ7ICDSgy-68" vertex="1">
          <mxGeometry x="64" width="20" height="20" as="geometry"/>
        </mxCell>
        <mxCell id="i9u_ca7h2w0VZ7ICDSgy-72" value="" style="aspect=fixed;perimeter=ellipsePerimeter;html=1;align=center;shadow=0;dashed=0;fontColor=#4277BB;labelBackgroundColor=#ffffff;fontSize=12;spacingTop=3;image;image=img/lib/ibm/users/sensor.svg;strokeWidth=2;" parent="i9u_ca7h2w0VZ7ICDSgy-68" vertex="1">
          <mxGeometry x="128" width="20" height="20" as="geometry"/>
        </mxCell>
        <mxCell id="i9u_ca7h2w0VZ7ICDSgy-73" value="" style="aspect=fixed;perimeter=ellipsePerimeter;html=1;align=center;shadow=0;dashed=0;fontColor=#4277BB;labelBackgroundColor=#ffffff;fontSize=12;spacingTop=3;image;image=img/lib/ibm/users/sensor.svg;strokeWidth=2;" parent="i9u_ca7h2w0VZ7ICDSgy-68" vertex="1">
          <mxGeometry x="192" width="20" height="20" as="geometry"/>
        </mxCell>
        <mxCell id="i9u_ca7h2w0VZ7ICDSgy-74" value="" style="aspect=fixed;perimeter=ellipsePerimeter;html=1;align=center;shadow=0;dashed=0;fontColor=#4277BB;labelBackgroundColor=#ffffff;fontSize=12;spacingTop=3;image;image=img/lib/ibm/users/sensor.svg;strokeWidth=2;" parent="i9u_ca7h2w0VZ7ICDSgy-68" vertex="1">
          <mxGeometry x="576" width="20" height="20" as="geometry"/>
        </mxCell>
        <mxCell id="i9u_ca7h2w0VZ7ICDSgy-75" value="" style="aspect=fixed;perimeter=ellipsePerimeter;html=1;align=center;shadow=0;dashed=0;fontColor=#4277BB;labelBackgroundColor=#ffffff;fontSize=12;spacingTop=3;image;image=img/lib/ibm/users/sensor.svg;strokeWidth=2;" parent="i9u_ca7h2w0VZ7ICDSgy-68" vertex="1">
          <mxGeometry x="320" width="20" height="20" as="geometry"/>
        </mxCell>
        <mxCell id="i9u_ca7h2w0VZ7ICDSgy-76" value="" style="aspect=fixed;perimeter=ellipsePerimeter;html=1;align=center;shadow=0;dashed=0;fontColor=#4277BB;labelBackgroundColor=#ffffff;fontSize=12;spacingTop=3;image;image=img/lib/ibm/users/sensor.svg;strokeWidth=2;" parent="i9u_ca7h2w0VZ7ICDSgy-68" vertex="1">
          <mxGeometry x="384" width="20" height="20" as="geometry"/>
        </mxCell>
        <mxCell id="i9u_ca7h2w0VZ7ICDSgy-77" value="" style="aspect=fixed;perimeter=ellipsePerimeter;html=1;align=center;shadow=0;dashed=0;fontColor=#4277BB;labelBackgroundColor=#ffffff;fontSize=12;spacingTop=3;image;image=img/lib/ibm/users/sensor.svg;strokeWidth=2;" parent="i9u_ca7h2w0VZ7ICDSgy-68" vertex="1">
          <mxGeometry x="448" width="20" height="20" as="geometry"/>
        </mxCell>
        <mxCell id="i9u_ca7h2w0VZ7ICDSgy-78" value="" style="aspect=fixed;perimeter=ellipsePerimeter;html=1;align=center;shadow=0;dashed=0;fontColor=#4277BB;labelBackgroundColor=#ffffff;fontSize=12;spacingTop=3;image;image=img/lib/ibm/users/sensor.svg;strokeWidth=2;" parent="i9u_ca7h2w0VZ7ICDSgy-68" vertex="1">
          <mxGeometry x="512" width="20" height="20" as="geometry"/>
        </mxCell>
        <mxCell id="i9u_ca7h2w0VZ7ICDSgy-79" value="" style="group" parent="2vlhUb15L5bQYwvKjpp_-22" vertex="1" connectable="0">
          <mxGeometry y="320" width="596" height="20" as="geometry"/>
        </mxCell>
        <mxCell id="i9u_ca7h2w0VZ7ICDSgy-80" value="" style="aspect=fixed;perimeter=ellipsePerimeter;html=1;align=center;shadow=0;dashed=0;fontColor=#4277BB;labelBackgroundColor=#ffffff;fontSize=12;spacingTop=3;image;image=img/lib/ibm/users/sensor.svg;strokeWidth=2;" parent="i9u_ca7h2w0VZ7ICDSgy-79" vertex="1">
          <mxGeometry x="256" width="20" height="20" as="geometry"/>
        </mxCell>
        <mxCell id="i9u_ca7h2w0VZ7ICDSgy-81" value="" style="aspect=fixed;perimeter=ellipsePerimeter;html=1;align=center;shadow=0;dashed=0;fontColor=#4277BB;labelBackgroundColor=#ffffff;fontSize=12;spacingTop=3;image;image=img/lib/ibm/users/sensor.svg;strokeWidth=2;" parent="i9u_ca7h2w0VZ7ICDSgy-79" vertex="1">
          <mxGeometry width="20" height="20" as="geometry"/>
        </mxCell>
        <mxCell id="i9u_ca7h2w0VZ7ICDSgy-82" value="" style="aspect=fixed;perimeter=ellipsePerimeter;html=1;align=center;shadow=0;dashed=0;fontColor=#4277BB;labelBackgroundColor=#ffffff;fontSize=12;spacingTop=3;image;image=img/lib/ibm/users/sensor.svg;strokeWidth=2;" parent="i9u_ca7h2w0VZ7ICDSgy-79" vertex="1">
          <mxGeometry x="64" width="20" height="20" as="geometry"/>
        </mxCell>
        <mxCell id="i9u_ca7h2w0VZ7ICDSgy-83" value="" style="aspect=fixed;perimeter=ellipsePerimeter;html=1;align=center;shadow=0;dashed=0;fontColor=#4277BB;labelBackgroundColor=#ffffff;fontSize=12;spacingTop=3;image;image=img/lib/ibm/users/sensor.svg;strokeWidth=2;" parent="i9u_ca7h2w0VZ7ICDSgy-79" vertex="1">
          <mxGeometry x="128" width="20" height="20" as="geometry"/>
        </mxCell>
        <mxCell id="i9u_ca7h2w0VZ7ICDSgy-84" value="" style="aspect=fixed;perimeter=ellipsePerimeter;html=1;align=center;shadow=0;dashed=0;fontColor=#4277BB;labelBackgroundColor=#ffffff;fontSize=12;spacingTop=3;image;image=img/lib/ibm/users/sensor.svg;strokeWidth=2;" parent="i9u_ca7h2w0VZ7ICDSgy-79" vertex="1">
          <mxGeometry x="192" width="20" height="20" as="geometry"/>
        </mxCell>
        <mxCell id="i9u_ca7h2w0VZ7ICDSgy-85" value="" style="aspect=fixed;perimeter=ellipsePerimeter;html=1;align=center;shadow=0;dashed=0;fontColor=#4277BB;labelBackgroundColor=#ffffff;fontSize=12;spacingTop=3;image;image=img/lib/ibm/users/sensor.svg;strokeWidth=2;" parent="i9u_ca7h2w0VZ7ICDSgy-79" vertex="1">
          <mxGeometry x="576" width="20" height="20" as="geometry"/>
        </mxCell>
        <mxCell id="i9u_ca7h2w0VZ7ICDSgy-86" value="" style="aspect=fixed;perimeter=ellipsePerimeter;html=1;align=center;shadow=0;dashed=0;fontColor=#4277BB;labelBackgroundColor=#ffffff;fontSize=12;spacingTop=3;image;image=img/lib/ibm/users/sensor.svg;strokeWidth=2;" parent="i9u_ca7h2w0VZ7ICDSgy-79" vertex="1">
          <mxGeometry x="320" width="20" height="20" as="geometry"/>
        </mxCell>
        <mxCell id="i9u_ca7h2w0VZ7ICDSgy-87" value="" style="aspect=fixed;perimeter=ellipsePerimeter;html=1;align=center;shadow=0;dashed=0;fontColor=#4277BB;labelBackgroundColor=#ffffff;fontSize=12;spacingTop=3;image;image=img/lib/ibm/users/sensor.svg;strokeWidth=2;" parent="i9u_ca7h2w0VZ7ICDSgy-79" vertex="1">
          <mxGeometry x="384" width="20" height="20" as="geometry"/>
        </mxCell>
        <mxCell id="i9u_ca7h2w0VZ7ICDSgy-88" value="" style="aspect=fixed;perimeter=ellipsePerimeter;html=1;align=center;shadow=0;dashed=0;fontColor=#4277BB;labelBackgroundColor=#ffffff;fontSize=12;spacingTop=3;image;image=img/lib/ibm/users/sensor.svg;strokeWidth=2;" parent="i9u_ca7h2w0VZ7ICDSgy-79" vertex="1">
          <mxGeometry x="448" width="20" height="20" as="geometry"/>
        </mxCell>
        <mxCell id="i9u_ca7h2w0VZ7ICDSgy-89" value="" style="aspect=fixed;perimeter=ellipsePerimeter;html=1;align=center;shadow=0;dashed=0;fontColor=#4277BB;labelBackgroundColor=#ffffff;fontSize=12;spacingTop=3;image;image=img/lib/ibm/users/sensor.svg;strokeWidth=2;" parent="i9u_ca7h2w0VZ7ICDSgy-79" vertex="1">
          <mxGeometry x="512" width="20" height="20" as="geometry"/>
        </mxCell>
        <mxCell id="2vlhUb15L5bQYwvKjpp_-1" value="" style="group" vertex="1" connectable="0" parent="2vlhUb15L5bQYwvKjpp_-22">
          <mxGeometry y="256" width="596" height="20" as="geometry"/>
        </mxCell>
        <mxCell id="2vlhUb15L5bQYwvKjpp_-2" value="" style="aspect=fixed;perimeter=ellipsePerimeter;html=1;align=center;shadow=0;dashed=0;fontColor=#4277BB;labelBackgroundColor=#ffffff;fontSize=12;spacingTop=3;image;image=img/lib/ibm/users/sensor.svg;strokeWidth=2;" vertex="1" parent="2vlhUb15L5bQYwvKjpp_-1">
          <mxGeometry x="256" width="20" height="20" as="geometry"/>
        </mxCell>
        <mxCell id="2vlhUb15L5bQYwvKjpp_-3" value="" style="aspect=fixed;perimeter=ellipsePerimeter;html=1;align=center;shadow=0;dashed=0;fontColor=#4277BB;labelBackgroundColor=#ffffff;fontSize=12;spacingTop=3;image;image=img/lib/ibm/users/sensor.svg;strokeWidth=2;" vertex="1" parent="2vlhUb15L5bQYwvKjpp_-1">
          <mxGeometry width="20" height="20" as="geometry"/>
        </mxCell>
        <mxCell id="2vlhUb15L5bQYwvKjpp_-4" value="" style="aspect=fixed;perimeter=ellipsePerimeter;html=1;align=center;shadow=0;dashed=0;fontColor=#4277BB;labelBackgroundColor=#ffffff;fontSize=12;spacingTop=3;image;image=img/lib/ibm/users/sensor.svg;strokeWidth=2;" vertex="1" parent="2vlhUb15L5bQYwvKjpp_-1">
          <mxGeometry x="64" width="20" height="20" as="geometry"/>
        </mxCell>
        <mxCell id="2vlhUb15L5bQYwvKjpp_-5" value="" style="aspect=fixed;perimeter=ellipsePerimeter;html=1;align=center;shadow=0;dashed=0;fontColor=#4277BB;labelBackgroundColor=#ffffff;fontSize=12;spacingTop=3;image;image=img/lib/ibm/users/sensor.svg;strokeWidth=2;" vertex="1" parent="2vlhUb15L5bQYwvKjpp_-1">
          <mxGeometry x="128" width="20" height="20" as="geometry"/>
        </mxCell>
        <mxCell id="2vlhUb15L5bQYwvKjpp_-6" value="" style="aspect=fixed;perimeter=ellipsePerimeter;html=1;align=center;shadow=0;dashed=0;fontColor=#4277BB;labelBackgroundColor=#ffffff;fontSize=12;spacingTop=3;image;image=img/lib/ibm/users/sensor.svg;strokeWidth=2;" vertex="1" parent="2vlhUb15L5bQYwvKjpp_-1">
          <mxGeometry x="192" width="20" height="20" as="geometry"/>
        </mxCell>
        <mxCell id="2vlhUb15L5bQYwvKjpp_-7" value="" style="aspect=fixed;perimeter=ellipsePerimeter;html=1;align=center;shadow=0;dashed=0;fontColor=#4277BB;labelBackgroundColor=#ffffff;fontSize=12;spacingTop=3;image;image=img/lib/ibm/users/sensor.svg;strokeWidth=2;" vertex="1" parent="2vlhUb15L5bQYwvKjpp_-1">
          <mxGeometry x="576" width="20" height="20" as="geometry"/>
        </mxCell>
        <mxCell id="2vlhUb15L5bQYwvKjpp_-8" value="" style="aspect=fixed;perimeter=ellipsePerimeter;html=1;align=center;shadow=0;dashed=0;fontColor=#4277BB;labelBackgroundColor=#ffffff;fontSize=12;spacingTop=3;image;image=img/lib/ibm/users/sensor.svg;strokeWidth=2;" vertex="1" parent="2vlhUb15L5bQYwvKjpp_-1">
          <mxGeometry x="320" width="20" height="20" as="geometry"/>
        </mxCell>
        <mxCell id="2vlhUb15L5bQYwvKjpp_-9" value="" style="aspect=fixed;perimeter=ellipsePerimeter;html=1;align=center;shadow=0;dashed=0;fontColor=#4277BB;labelBackgroundColor=#ffffff;fontSize=12;spacingTop=3;image;image=img/lib/ibm/users/sensor.svg;strokeWidth=2;" vertex="1" parent="2vlhUb15L5bQYwvKjpp_-1">
          <mxGeometry x="384" width="20" height="20" as="geometry"/>
        </mxCell>
        <mxCell id="2vlhUb15L5bQYwvKjpp_-10" value="" style="aspect=fixed;perimeter=ellipsePerimeter;html=1;align=center;shadow=0;dashed=0;fontColor=#4277BB;labelBackgroundColor=#ffffff;fontSize=12;spacingTop=3;image;image=img/lib/ibm/users/sensor.svg;strokeWidth=2;" vertex="1" parent="2vlhUb15L5bQYwvKjpp_-1">
          <mxGeometry x="448" width="20" height="20" as="geometry"/>
        </mxCell>
        <mxCell id="2vlhUb15L5bQYwvKjpp_-11" value="" style="aspect=fixed;perimeter=ellipsePerimeter;html=1;align=center;shadow=0;dashed=0;fontColor=#4277BB;labelBackgroundColor=#ffffff;fontSize=12;spacingTop=3;image;image=img/lib/ibm/users/sensor.svg;strokeWidth=2;" vertex="1" parent="2vlhUb15L5bQYwvKjpp_-1">
          <mxGeometry x="512" width="20" height="20" as="geometry"/>
        </mxCell>
        <mxCell id="2vlhUb15L5bQYwvKjpp_-102" value="" style="group;aspect=fixed;" vertex="1" connectable="0" parent="1">
          <mxGeometry x="120" y="190" width="235" height="141" as="geometry"/>
        </mxCell>
        <mxCell id="2vlhUb15L5bQYwvKjpp_-23" value="" style="rounded=0;whiteSpace=wrap;html=1;strokeWidth=2;glass=0;shadow=0;comic=0;aspect=fixed;" vertex="1" parent="2vlhUb15L5bQYwvKjpp_-102">
          <mxGeometry width="235" height="141" as="geometry"/>
        </mxCell>
        <mxCell id="2vlhUb15L5bQYwvKjpp_-24" value="" style="group;aspect=fixed;" vertex="1" connectable="0" parent="2vlhUb15L5bQYwvKjpp_-102">
          <mxGeometry x="8.078125" y="8.078125" width="218.84375" height="124.84375" as="geometry"/>
        </mxCell>
        <mxCell id="2vlhUb15L5bQYwvKjpp_-25" value="" style="group" vertex="1" connectable="0" parent="2vlhUb15L5bQYwvKjpp_-24">
          <mxGeometry width="218.84375" height="7.34375" as="geometry"/>
        </mxCell>
        <mxCell id="2vlhUb15L5bQYwvKjpp_-26" value="" style="aspect=fixed;perimeter=ellipsePerimeter;html=1;align=center;shadow=0;dashed=0;fontColor=#4277BB;labelBackgroundColor=#ffffff;fontSize=12;spacingTop=3;image;image=img/lib/ibm/users/sensor.svg;strokeWidth=2;" vertex="1" parent="2vlhUb15L5bQYwvKjpp_-25">
          <mxGeometry x="94" width="7.34375" height="7.34375" as="geometry"/>
        </mxCell>
        <mxCell id="2vlhUb15L5bQYwvKjpp_-27" value="" style="aspect=fixed;perimeter=ellipsePerimeter;html=1;align=center;shadow=0;dashed=0;fontColor=#4277BB;labelBackgroundColor=#ffffff;fontSize=12;spacingTop=3;image;image=img/lib/ibm/users/sensor.svg;strokeWidth=2;" vertex="1" parent="2vlhUb15L5bQYwvKjpp_-25">
          <mxGeometry width="7.34375" height="7.34375" as="geometry"/>
        </mxCell>
        <mxCell id="2vlhUb15L5bQYwvKjpp_-28" value="" style="aspect=fixed;perimeter=ellipsePerimeter;html=1;align=center;shadow=0;dashed=0;fontColor=#4277BB;labelBackgroundColor=#ffffff;fontSize=12;spacingTop=3;image;image=img/lib/ibm/users/sensor.svg;strokeWidth=2;" vertex="1" parent="2vlhUb15L5bQYwvKjpp_-25">
          <mxGeometry x="23.5" width="7.34375" height="7.34375" as="geometry"/>
        </mxCell>
        <mxCell id="2vlhUb15L5bQYwvKjpp_-29" value="" style="aspect=fixed;perimeter=ellipsePerimeter;html=1;align=center;shadow=0;dashed=0;fontColor=#4277BB;labelBackgroundColor=#ffffff;fontSize=12;spacingTop=3;image;image=img/lib/ibm/users/sensor.svg;strokeWidth=2;" vertex="1" parent="2vlhUb15L5bQYwvKjpp_-25">
          <mxGeometry x="47" width="7.34375" height="7.34375" as="geometry"/>
        </mxCell>
        <mxCell id="2vlhUb15L5bQYwvKjpp_-30" value="" style="aspect=fixed;perimeter=ellipsePerimeter;html=1;align=center;shadow=0;dashed=0;fontColor=#4277BB;labelBackgroundColor=#ffffff;fontSize=12;spacingTop=3;image;image=img/lib/ibm/users/sensor.svg;strokeWidth=2;" vertex="1" parent="2vlhUb15L5bQYwvKjpp_-25">
          <mxGeometry x="70.5" width="7.34375" height="7.34375" as="geometry"/>
        </mxCell>
        <mxCell id="2vlhUb15L5bQYwvKjpp_-31" value="" style="aspect=fixed;perimeter=ellipsePerimeter;html=1;align=center;shadow=0;dashed=0;fontColor=#4277BB;labelBackgroundColor=#ffffff;fontSize=12;spacingTop=3;image;image=img/lib/ibm/users/sensor.svg;strokeWidth=2;" vertex="1" parent="2vlhUb15L5bQYwvKjpp_-25">
          <mxGeometry x="211.5" width="7.34375" height="7.34375" as="geometry"/>
        </mxCell>
        <mxCell id="2vlhUb15L5bQYwvKjpp_-32" value="" style="aspect=fixed;perimeter=ellipsePerimeter;html=1;align=center;shadow=0;dashed=0;fontColor=#4277BB;labelBackgroundColor=#ffffff;fontSize=12;spacingTop=3;image;image=img/lib/ibm/users/sensor.svg;strokeWidth=2;" vertex="1" parent="2vlhUb15L5bQYwvKjpp_-25">
          <mxGeometry x="117.5" width="7.34375" height="7.34375" as="geometry"/>
        </mxCell>
        <mxCell id="2vlhUb15L5bQYwvKjpp_-33" value="" style="aspect=fixed;perimeter=ellipsePerimeter;html=1;align=center;shadow=0;dashed=0;fontColor=#4277BB;labelBackgroundColor=#ffffff;fontSize=12;spacingTop=3;image;image=img/lib/ibm/users/sensor.svg;strokeWidth=2;" vertex="1" parent="2vlhUb15L5bQYwvKjpp_-25">
          <mxGeometry x="141" width="7.34375" height="7.34375" as="geometry"/>
        </mxCell>
        <mxCell id="2vlhUb15L5bQYwvKjpp_-34" value="" style="aspect=fixed;perimeter=ellipsePerimeter;html=1;align=center;shadow=0;dashed=0;fontColor=#4277BB;labelBackgroundColor=#ffffff;fontSize=12;spacingTop=3;image;image=img/lib/ibm/users/sensor.svg;strokeWidth=2;" vertex="1" parent="2vlhUb15L5bQYwvKjpp_-25">
          <mxGeometry x="164.5" width="7.34375" height="7.34375" as="geometry"/>
        </mxCell>
        <mxCell id="2vlhUb15L5bQYwvKjpp_-35" value="" style="aspect=fixed;perimeter=ellipsePerimeter;html=1;align=center;shadow=0;dashed=0;fontColor=#4277BB;labelBackgroundColor=#ffffff;fontSize=12;spacingTop=3;image;image=img/lib/ibm/users/sensor.svg;strokeWidth=2;" vertex="1" parent="2vlhUb15L5bQYwvKjpp_-25">
          <mxGeometry x="188" width="7.34375" height="7.34375" as="geometry"/>
        </mxCell>
        <mxCell id="2vlhUb15L5bQYwvKjpp_-36" value="" style="group" vertex="1" connectable="0" parent="2vlhUb15L5bQYwvKjpp_-24">
          <mxGeometry y="23.5" width="218.84375" height="7.34375" as="geometry"/>
        </mxCell>
        <mxCell id="2vlhUb15L5bQYwvKjpp_-37" value="" style="aspect=fixed;perimeter=ellipsePerimeter;html=1;align=center;shadow=0;dashed=0;fontColor=#4277BB;labelBackgroundColor=#ffffff;fontSize=12;spacingTop=3;image;image=img/lib/ibm/users/sensor.svg;strokeWidth=2;" vertex="1" parent="2vlhUb15L5bQYwvKjpp_-36">
          <mxGeometry x="94" width="7.34375" height="7.34375" as="geometry"/>
        </mxCell>
        <mxCell id="2vlhUb15L5bQYwvKjpp_-38" value="" style="aspect=fixed;perimeter=ellipsePerimeter;html=1;align=center;shadow=0;dashed=0;fontColor=#4277BB;labelBackgroundColor=#ffffff;fontSize=12;spacingTop=3;image;image=img/lib/ibm/users/sensor.svg;strokeWidth=2;" vertex="1" parent="2vlhUb15L5bQYwvKjpp_-36">
          <mxGeometry width="7.34375" height="7.34375" as="geometry"/>
        </mxCell>
        <mxCell id="2vlhUb15L5bQYwvKjpp_-39" value="" style="aspect=fixed;perimeter=ellipsePerimeter;html=1;align=center;shadow=0;dashed=0;fontColor=#4277BB;labelBackgroundColor=#ffffff;fontSize=12;spacingTop=3;image;image=img/lib/ibm/users/sensor.svg;strokeWidth=2;" vertex="1" parent="2vlhUb15L5bQYwvKjpp_-36">
          <mxGeometry x="23.5" width="7.34375" height="7.34375" as="geometry"/>
        </mxCell>
        <mxCell id="2vlhUb15L5bQYwvKjpp_-40" value="" style="aspect=fixed;perimeter=ellipsePerimeter;html=1;align=center;shadow=0;dashed=0;fontColor=#4277BB;labelBackgroundColor=#ffffff;fontSize=12;spacingTop=3;image;image=img/lib/ibm/users/sensor.svg;strokeWidth=2;" vertex="1" parent="2vlhUb15L5bQYwvKjpp_-36">
          <mxGeometry x="47" width="7.34375" height="7.34375" as="geometry"/>
        </mxCell>
        <mxCell id="2vlhUb15L5bQYwvKjpp_-41" value="" style="aspect=fixed;perimeter=ellipsePerimeter;html=1;align=center;shadow=0;dashed=0;fontColor=#4277BB;labelBackgroundColor=#ffffff;fontSize=12;spacingTop=3;image;image=img/lib/ibm/users/sensor.svg;strokeWidth=2;" vertex="1" parent="2vlhUb15L5bQYwvKjpp_-36">
          <mxGeometry x="70.5" width="7.34375" height="7.34375" as="geometry"/>
        </mxCell>
        <mxCell id="2vlhUb15L5bQYwvKjpp_-42" value="" style="aspect=fixed;perimeter=ellipsePerimeter;html=1;align=center;shadow=0;dashed=0;fontColor=#4277BB;labelBackgroundColor=#ffffff;fontSize=12;spacingTop=3;image;image=img/lib/ibm/users/sensor.svg;strokeWidth=2;" vertex="1" parent="2vlhUb15L5bQYwvKjpp_-36">
          <mxGeometry x="211.5" width="7.34375" height="7.34375" as="geometry"/>
        </mxCell>
        <mxCell id="2vlhUb15L5bQYwvKjpp_-43" value="" style="aspect=fixed;perimeter=ellipsePerimeter;html=1;align=center;shadow=0;dashed=0;fontColor=#4277BB;labelBackgroundColor=#ffffff;fontSize=12;spacingTop=3;image;image=img/lib/ibm/users/sensor.svg;strokeWidth=2;" vertex="1" parent="2vlhUb15L5bQYwvKjpp_-36">
          <mxGeometry x="117.5" width="7.34375" height="7.34375" as="geometry"/>
        </mxCell>
        <mxCell id="2vlhUb15L5bQYwvKjpp_-44" value="" style="aspect=fixed;perimeter=ellipsePerimeter;html=1;align=center;shadow=0;dashed=0;fontColor=#4277BB;labelBackgroundColor=#ffffff;fontSize=12;spacingTop=3;image;image=img/lib/ibm/users/sensor.svg;strokeWidth=2;" vertex="1" parent="2vlhUb15L5bQYwvKjpp_-36">
          <mxGeometry x="141" width="7.34375" height="7.34375" as="geometry"/>
        </mxCell>
        <mxCell id="2vlhUb15L5bQYwvKjpp_-45" value="" style="aspect=fixed;perimeter=ellipsePerimeter;html=1;align=center;shadow=0;dashed=0;fontColor=#4277BB;labelBackgroundColor=#ffffff;fontSize=12;spacingTop=3;image;image=img/lib/ibm/users/sensor.svg;strokeWidth=2;" vertex="1" parent="2vlhUb15L5bQYwvKjpp_-36">
          <mxGeometry x="164.5" width="7.34375" height="7.34375" as="geometry"/>
        </mxCell>
        <mxCell id="2vlhUb15L5bQYwvKjpp_-46" value="" style="aspect=fixed;perimeter=ellipsePerimeter;html=1;align=center;shadow=0;dashed=0;fontColor=#4277BB;labelBackgroundColor=#ffffff;fontSize=12;spacingTop=3;image;image=img/lib/ibm/users/sensor.svg;strokeWidth=2;" vertex="1" parent="2vlhUb15L5bQYwvKjpp_-36">
          <mxGeometry x="188" width="7.34375" height="7.34375" as="geometry"/>
        </mxCell>
        <mxCell id="2vlhUb15L5bQYwvKjpp_-47" value="" style="group" vertex="1" connectable="0" parent="2vlhUb15L5bQYwvKjpp_-24">
          <mxGeometry y="47" width="218.84375" height="7.34375" as="geometry"/>
        </mxCell>
        <mxCell id="2vlhUb15L5bQYwvKjpp_-48" value="" style="aspect=fixed;perimeter=ellipsePerimeter;html=1;align=center;shadow=0;dashed=0;fontColor=#4277BB;labelBackgroundColor=#ffffff;fontSize=12;spacingTop=3;image;image=img/lib/ibm/users/sensor.svg;strokeWidth=2;" vertex="1" parent="2vlhUb15L5bQYwvKjpp_-47">
          <mxGeometry x="94" width="7.34375" height="7.34375" as="geometry"/>
        </mxCell>
        <mxCell id="2vlhUb15L5bQYwvKjpp_-49" value="" style="aspect=fixed;perimeter=ellipsePerimeter;html=1;align=center;shadow=0;dashed=0;fontColor=#4277BB;labelBackgroundColor=#ffffff;fontSize=12;spacingTop=3;image;image=img/lib/ibm/users/sensor.svg;strokeWidth=2;" vertex="1" parent="2vlhUb15L5bQYwvKjpp_-47">
          <mxGeometry width="7.34375" height="7.34375" as="geometry"/>
        </mxCell>
        <mxCell id="2vlhUb15L5bQYwvKjpp_-50" value="" style="aspect=fixed;perimeter=ellipsePerimeter;html=1;align=center;shadow=0;dashed=0;fontColor=#4277BB;labelBackgroundColor=#ffffff;fontSize=12;spacingTop=3;image;image=img/lib/ibm/users/sensor.svg;strokeWidth=2;" vertex="1" parent="2vlhUb15L5bQYwvKjpp_-47">
          <mxGeometry x="23.5" width="7.34375" height="7.34375" as="geometry"/>
        </mxCell>
        <mxCell id="2vlhUb15L5bQYwvKjpp_-51" value="" style="aspect=fixed;perimeter=ellipsePerimeter;html=1;align=center;shadow=0;dashed=0;fontColor=#4277BB;labelBackgroundColor=#ffffff;fontSize=12;spacingTop=3;image;image=img/lib/ibm/users/sensor.svg;strokeWidth=2;" vertex="1" parent="2vlhUb15L5bQYwvKjpp_-47">
          <mxGeometry x="47" width="7.34375" height="7.34375" as="geometry"/>
        </mxCell>
        <mxCell id="2vlhUb15L5bQYwvKjpp_-52" value="" style="aspect=fixed;perimeter=ellipsePerimeter;html=1;align=center;shadow=0;dashed=0;fontColor=#4277BB;labelBackgroundColor=#ffffff;fontSize=12;spacingTop=3;image;image=img/lib/ibm/users/sensor.svg;strokeWidth=2;" vertex="1" parent="2vlhUb15L5bQYwvKjpp_-47">
          <mxGeometry x="70.5" width="7.34375" height="7.34375" as="geometry"/>
        </mxCell>
        <mxCell id="2vlhUb15L5bQYwvKjpp_-53" value="" style="aspect=fixed;perimeter=ellipsePerimeter;html=1;align=center;shadow=0;dashed=0;fontColor=#4277BB;labelBackgroundColor=#ffffff;fontSize=12;spacingTop=3;image;image=img/lib/ibm/users/sensor.svg;strokeWidth=2;" vertex="1" parent="2vlhUb15L5bQYwvKjpp_-47">
          <mxGeometry x="211.5" width="7.34375" height="7.34375" as="geometry"/>
        </mxCell>
        <mxCell id="2vlhUb15L5bQYwvKjpp_-54" value="" style="aspect=fixed;perimeter=ellipsePerimeter;html=1;align=center;shadow=0;dashed=0;fontColor=#4277BB;labelBackgroundColor=#ffffff;fontSize=12;spacingTop=3;image;image=img/lib/ibm/users/sensor.svg;strokeWidth=2;" vertex="1" parent="2vlhUb15L5bQYwvKjpp_-47">
          <mxGeometry x="117.5" width="7.34375" height="7.34375" as="geometry"/>
        </mxCell>
        <mxCell id="2vlhUb15L5bQYwvKjpp_-55" value="" style="aspect=fixed;perimeter=ellipsePerimeter;html=1;align=center;shadow=0;dashed=0;fontColor=#4277BB;labelBackgroundColor=#ffffff;fontSize=12;spacingTop=3;image;image=img/lib/ibm/users/sensor.svg;strokeWidth=2;" vertex="1" parent="2vlhUb15L5bQYwvKjpp_-47">
          <mxGeometry x="141" width="7.34375" height="7.34375" as="geometry"/>
        </mxCell>
        <mxCell id="2vlhUb15L5bQYwvKjpp_-56" value="" style="aspect=fixed;perimeter=ellipsePerimeter;html=1;align=center;shadow=0;dashed=0;fontColor=#4277BB;labelBackgroundColor=#ffffff;fontSize=12;spacingTop=3;image;image=img/lib/ibm/users/sensor.svg;strokeWidth=2;" vertex="1" parent="2vlhUb15L5bQYwvKjpp_-47">
          <mxGeometry x="164.5" width="7.34375" height="7.34375" as="geometry"/>
        </mxCell>
        <mxCell id="2vlhUb15L5bQYwvKjpp_-57" value="" style="aspect=fixed;perimeter=ellipsePerimeter;html=1;align=center;shadow=0;dashed=0;fontColor=#4277BB;labelBackgroundColor=#ffffff;fontSize=12;spacingTop=3;image;image=img/lib/ibm/users/sensor.svg;strokeWidth=2;" vertex="1" parent="2vlhUb15L5bQYwvKjpp_-47">
          <mxGeometry x="188" width="7.34375" height="7.34375" as="geometry"/>
        </mxCell>
        <mxCell id="2vlhUb15L5bQYwvKjpp_-58" value="" style="group" vertex="1" connectable="0" parent="2vlhUb15L5bQYwvKjpp_-24">
          <mxGeometry y="70.5" width="218.84375" height="7.34375" as="geometry"/>
        </mxCell>
        <mxCell id="2vlhUb15L5bQYwvKjpp_-59" value="" style="aspect=fixed;perimeter=ellipsePerimeter;html=1;align=center;shadow=0;dashed=0;fontColor=#4277BB;labelBackgroundColor=#ffffff;fontSize=12;spacingTop=3;image;image=img/lib/ibm/users/sensor.svg;strokeWidth=2;" vertex="1" parent="2vlhUb15L5bQYwvKjpp_-58">
          <mxGeometry x="94" width="7.34375" height="7.34375" as="geometry"/>
        </mxCell>
        <mxCell id="2vlhUb15L5bQYwvKjpp_-60" value="" style="aspect=fixed;perimeter=ellipsePerimeter;html=1;align=center;shadow=0;dashed=0;fontColor=#4277BB;labelBackgroundColor=#ffffff;fontSize=12;spacingTop=3;image;image=img/lib/ibm/users/sensor.svg;strokeWidth=2;" vertex="1" parent="2vlhUb15L5bQYwvKjpp_-58">
          <mxGeometry width="7.34375" height="7.34375" as="geometry"/>
        </mxCell>
        <mxCell id="2vlhUb15L5bQYwvKjpp_-61" value="" style="aspect=fixed;perimeter=ellipsePerimeter;html=1;align=center;shadow=0;dashed=0;fontColor=#4277BB;labelBackgroundColor=#ffffff;fontSize=12;spacingTop=3;image;image=img/lib/ibm/users/sensor.svg;strokeWidth=2;" vertex="1" parent="2vlhUb15L5bQYwvKjpp_-58">
          <mxGeometry x="23.5" width="7.34375" height="7.34375" as="geometry"/>
        </mxCell>
        <mxCell id="2vlhUb15L5bQYwvKjpp_-62" value="" style="aspect=fixed;perimeter=ellipsePerimeter;html=1;align=center;shadow=0;dashed=0;fontColor=#4277BB;labelBackgroundColor=#ffffff;fontSize=12;spacingTop=3;image;image=img/lib/ibm/users/sensor.svg;strokeWidth=2;" vertex="1" parent="2vlhUb15L5bQYwvKjpp_-58">
          <mxGeometry x="47" width="7.34375" height="7.34375" as="geometry"/>
        </mxCell>
        <mxCell id="2vlhUb15L5bQYwvKjpp_-63" value="" style="aspect=fixed;perimeter=ellipsePerimeter;html=1;align=center;shadow=0;dashed=0;fontColor=#4277BB;labelBackgroundColor=#ffffff;fontSize=12;spacingTop=3;image;image=img/lib/ibm/users/sensor.svg;strokeWidth=2;" vertex="1" parent="2vlhUb15L5bQYwvKjpp_-58">
          <mxGeometry x="70.5" width="7.34375" height="7.34375" as="geometry"/>
        </mxCell>
        <mxCell id="2vlhUb15L5bQYwvKjpp_-64" value="" style="aspect=fixed;perimeter=ellipsePerimeter;html=1;align=center;shadow=0;dashed=0;fontColor=#4277BB;labelBackgroundColor=#ffffff;fontSize=12;spacingTop=3;image;image=img/lib/ibm/users/sensor.svg;strokeWidth=2;" vertex="1" parent="2vlhUb15L5bQYwvKjpp_-58">
          <mxGeometry x="211.5" width="7.34375" height="7.34375" as="geometry"/>
        </mxCell>
        <mxCell id="2vlhUb15L5bQYwvKjpp_-65" value="" style="aspect=fixed;perimeter=ellipsePerimeter;html=1;align=center;shadow=0;dashed=0;fontColor=#4277BB;labelBackgroundColor=#ffffff;fontSize=12;spacingTop=3;image;image=img/lib/ibm/users/sensor.svg;strokeWidth=2;" vertex="1" parent="2vlhUb15L5bQYwvKjpp_-58">
          <mxGeometry x="117.5" width="7.34375" height="7.34375" as="geometry"/>
        </mxCell>
        <mxCell id="2vlhUb15L5bQYwvKjpp_-66" value="" style="aspect=fixed;perimeter=ellipsePerimeter;html=1;align=center;shadow=0;dashed=0;fontColor=#4277BB;labelBackgroundColor=#ffffff;fontSize=12;spacingTop=3;image;image=img/lib/ibm/users/sensor.svg;strokeWidth=2;" vertex="1" parent="2vlhUb15L5bQYwvKjpp_-58">
          <mxGeometry x="141" width="7.34375" height="7.34375" as="geometry"/>
        </mxCell>
        <mxCell id="2vlhUb15L5bQYwvKjpp_-67" value="" style="aspect=fixed;perimeter=ellipsePerimeter;html=1;align=center;shadow=0;dashed=0;fontColor=#4277BB;labelBackgroundColor=#ffffff;fontSize=12;spacingTop=3;image;image=img/lib/ibm/users/sensor.svg;strokeWidth=2;" vertex="1" parent="2vlhUb15L5bQYwvKjpp_-58">
          <mxGeometry x="164.5" width="7.34375" height="7.34375" as="geometry"/>
        </mxCell>
        <mxCell id="2vlhUb15L5bQYwvKjpp_-68" value="" style="aspect=fixed;perimeter=ellipsePerimeter;html=1;align=center;shadow=0;dashed=0;fontColor=#4277BB;labelBackgroundColor=#ffffff;fontSize=12;spacingTop=3;image;image=img/lib/ibm/users/sensor.svg;strokeWidth=2;" vertex="1" parent="2vlhUb15L5bQYwvKjpp_-58">
          <mxGeometry x="188" width="7.34375" height="7.34375" as="geometry"/>
        </mxCell>
        <mxCell id="2vlhUb15L5bQYwvKjpp_-69" value="" style="group" vertex="1" connectable="0" parent="2vlhUb15L5bQYwvKjpp_-24">
          <mxGeometry y="94" width="218.84375" height="7.34375" as="geometry"/>
        </mxCell>
        <mxCell id="2vlhUb15L5bQYwvKjpp_-70" value="" style="aspect=fixed;perimeter=ellipsePerimeter;html=1;align=center;shadow=0;dashed=0;fontColor=#4277BB;labelBackgroundColor=#ffffff;fontSize=12;spacingTop=3;image;image=img/lib/ibm/users/sensor.svg;strokeWidth=2;" vertex="1" parent="2vlhUb15L5bQYwvKjpp_-69">
          <mxGeometry x="94" width="7.34375" height="7.34375" as="geometry"/>
        </mxCell>
        <mxCell id="2vlhUb15L5bQYwvKjpp_-71" value="" style="aspect=fixed;perimeter=ellipsePerimeter;html=1;align=center;shadow=0;dashed=0;fontColor=#4277BB;labelBackgroundColor=#ffffff;fontSize=12;spacingTop=3;image;image=img/lib/ibm/users/sensor.svg;strokeWidth=2;" vertex="1" parent="2vlhUb15L5bQYwvKjpp_-69">
          <mxGeometry width="7.34375" height="7.34375" as="geometry"/>
        </mxCell>
        <mxCell id="2vlhUb15L5bQYwvKjpp_-72" value="" style="aspect=fixed;perimeter=ellipsePerimeter;html=1;align=center;shadow=0;dashed=0;fontColor=#4277BB;labelBackgroundColor=#ffffff;fontSize=12;spacingTop=3;image;image=img/lib/ibm/users/sensor.svg;strokeWidth=2;" vertex="1" parent="2vlhUb15L5bQYwvKjpp_-69">
          <mxGeometry x="23.5" width="7.34375" height="7.34375" as="geometry"/>
        </mxCell>
        <mxCell id="2vlhUb15L5bQYwvKjpp_-73" value="" style="aspect=fixed;perimeter=ellipsePerimeter;html=1;align=center;shadow=0;dashed=0;fontColor=#4277BB;labelBackgroundColor=#ffffff;fontSize=12;spacingTop=3;image;image=img/lib/ibm/users/sensor.svg;strokeWidth=2;" vertex="1" parent="2vlhUb15L5bQYwvKjpp_-69">
          <mxGeometry x="47" width="7.34375" height="7.34375" as="geometry"/>
        </mxCell>
        <mxCell id="2vlhUb15L5bQYwvKjpp_-74" value="" style="aspect=fixed;perimeter=ellipsePerimeter;html=1;align=center;shadow=0;dashed=0;fontColor=#4277BB;labelBackgroundColor=#ffffff;fontSize=12;spacingTop=3;image;image=img/lib/ibm/users/sensor.svg;strokeWidth=2;" vertex="1" parent="2vlhUb15L5bQYwvKjpp_-69">
          <mxGeometry x="70.5" width="7.34375" height="7.34375" as="geometry"/>
        </mxCell>
        <mxCell id="2vlhUb15L5bQYwvKjpp_-75" value="" style="aspect=fixed;perimeter=ellipsePerimeter;html=1;align=center;shadow=0;dashed=0;fontColor=#4277BB;labelBackgroundColor=#ffffff;fontSize=12;spacingTop=3;image;image=img/lib/ibm/users/sensor.svg;strokeWidth=2;" vertex="1" parent="2vlhUb15L5bQYwvKjpp_-69">
          <mxGeometry x="211.5" width="7.34375" height="7.34375" as="geometry"/>
        </mxCell>
        <mxCell id="2vlhUb15L5bQYwvKjpp_-76" value="" style="aspect=fixed;perimeter=ellipsePerimeter;html=1;align=center;shadow=0;dashed=0;fontColor=#4277BB;labelBackgroundColor=#ffffff;fontSize=12;spacingTop=3;image;image=img/lib/ibm/users/sensor.svg;strokeWidth=2;" vertex="1" parent="2vlhUb15L5bQYwvKjpp_-69">
          <mxGeometry x="117.5" width="7.34375" height="7.34375" as="geometry"/>
        </mxCell>
        <mxCell id="2vlhUb15L5bQYwvKjpp_-77" value="" style="aspect=fixed;perimeter=ellipsePerimeter;html=1;align=center;shadow=0;dashed=0;fontColor=#4277BB;labelBackgroundColor=#ffffff;fontSize=12;spacingTop=3;image;image=img/lib/ibm/users/sensor.svg;strokeWidth=2;" vertex="1" parent="2vlhUb15L5bQYwvKjpp_-69">
          <mxGeometry x="141" width="7.34375" height="7.34375" as="geometry"/>
        </mxCell>
        <mxCell id="2vlhUb15L5bQYwvKjpp_-78" value="" style="aspect=fixed;perimeter=ellipsePerimeter;html=1;align=center;shadow=0;dashed=0;fontColor=#4277BB;labelBackgroundColor=#ffffff;fontSize=12;spacingTop=3;image;image=img/lib/ibm/users/sensor.svg;strokeWidth=2;" vertex="1" parent="2vlhUb15L5bQYwvKjpp_-69">
          <mxGeometry x="164.5" width="7.34375" height="7.34375" as="geometry"/>
        </mxCell>
        <mxCell id="2vlhUb15L5bQYwvKjpp_-79" value="" style="aspect=fixed;perimeter=ellipsePerimeter;html=1;align=center;shadow=0;dashed=0;fontColor=#4277BB;labelBackgroundColor=#ffffff;fontSize=12;spacingTop=3;image;image=img/lib/ibm/users/sensor.svg;strokeWidth=2;" vertex="1" parent="2vlhUb15L5bQYwvKjpp_-69">
          <mxGeometry x="188" width="7.34375" height="7.34375" as="geometry"/>
        </mxCell>
        <mxCell id="2vlhUb15L5bQYwvKjpp_-80" value="" style="group" vertex="1" connectable="0" parent="2vlhUb15L5bQYwvKjpp_-24">
          <mxGeometry y="117.5" width="218.84375" height="7.34375" as="geometry"/>
        </mxCell>
        <mxCell id="2vlhUb15L5bQYwvKjpp_-81" value="" style="aspect=fixed;perimeter=ellipsePerimeter;html=1;align=center;shadow=0;dashed=0;fontColor=#4277BB;labelBackgroundColor=#ffffff;fontSize=12;spacingTop=3;image;image=img/lib/ibm/users/sensor.svg;strokeWidth=2;" vertex="1" parent="2vlhUb15L5bQYwvKjpp_-80">
          <mxGeometry x="94" width="7.34375" height="7.34375" as="geometry"/>
        </mxCell>
        <mxCell id="2vlhUb15L5bQYwvKjpp_-82" value="" style="aspect=fixed;perimeter=ellipsePerimeter;html=1;align=center;shadow=0;dashed=0;fontColor=#4277BB;labelBackgroundColor=#ffffff;fontSize=12;spacingTop=3;image;image=img/lib/ibm/users/sensor.svg;strokeWidth=2;" vertex="1" parent="2vlhUb15L5bQYwvKjpp_-80">
          <mxGeometry width="7.34375" height="7.34375" as="geometry"/>
        </mxCell>
        <mxCell id="2vlhUb15L5bQYwvKjpp_-83" value="" style="aspect=fixed;perimeter=ellipsePerimeter;html=1;align=center;shadow=0;dashed=0;fontColor=#4277BB;labelBackgroundColor=#ffffff;fontSize=12;spacingTop=3;image;image=img/lib/ibm/users/sensor.svg;strokeWidth=2;" vertex="1" parent="2vlhUb15L5bQYwvKjpp_-80">
          <mxGeometry x="23.5" width="7.34375" height="7.34375" as="geometry"/>
        </mxCell>
        <mxCell id="2vlhUb15L5bQYwvKjpp_-84" value="" style="aspect=fixed;perimeter=ellipsePerimeter;html=1;align=center;shadow=0;dashed=0;fontColor=#4277BB;labelBackgroundColor=#ffffff;fontSize=12;spacingTop=3;image;image=img/lib/ibm/users/sensor.svg;strokeWidth=2;" vertex="1" parent="2vlhUb15L5bQYwvKjpp_-80">
          <mxGeometry x="47" width="7.34375" height="7.34375" as="geometry"/>
        </mxCell>
        <mxCell id="2vlhUb15L5bQYwvKjpp_-85" value="" style="aspect=fixed;perimeter=ellipsePerimeter;html=1;align=center;shadow=0;dashed=0;fontColor=#4277BB;labelBackgroundColor=#ffffff;fontSize=12;spacingTop=3;image;image=img/lib/ibm/users/sensor.svg;strokeWidth=2;" vertex="1" parent="2vlhUb15L5bQYwvKjpp_-80">
          <mxGeometry x="70.5" width="7.34375" height="7.34375" as="geometry"/>
        </mxCell>
        <mxCell id="2vlhUb15L5bQYwvKjpp_-86" value="" style="aspect=fixed;perimeter=ellipsePerimeter;html=1;align=center;shadow=0;dashed=0;fontColor=#4277BB;labelBackgroundColor=#ffffff;fontSize=12;spacingTop=3;image;image=img/lib/ibm/users/sensor.svg;strokeWidth=2;" vertex="1" parent="2vlhUb15L5bQYwvKjpp_-80">
          <mxGeometry x="211.5" width="7.34375" height="7.34375" as="geometry"/>
        </mxCell>
        <mxCell id="2vlhUb15L5bQYwvKjpp_-87" value="" style="aspect=fixed;perimeter=ellipsePerimeter;html=1;align=center;shadow=0;dashed=0;fontColor=#4277BB;labelBackgroundColor=#ffffff;fontSize=12;spacingTop=3;image;image=img/lib/ibm/users/sensor.svg;strokeWidth=2;" vertex="1" parent="2vlhUb15L5bQYwvKjpp_-80">
          <mxGeometry x="117.5" width="7.34375" height="7.34375" as="geometry"/>
        </mxCell>
        <mxCell id="2vlhUb15L5bQYwvKjpp_-88" value="" style="aspect=fixed;perimeter=ellipsePerimeter;html=1;align=center;shadow=0;dashed=0;fontColor=#4277BB;labelBackgroundColor=#ffffff;fontSize=12;spacingTop=3;image;image=img/lib/ibm/users/sensor.svg;strokeWidth=2;" vertex="1" parent="2vlhUb15L5bQYwvKjpp_-80">
          <mxGeometry x="141" width="7.34375" height="7.34375" as="geometry"/>
        </mxCell>
        <mxCell id="2vlhUb15L5bQYwvKjpp_-89" value="" style="aspect=fixed;perimeter=ellipsePerimeter;html=1;align=center;shadow=0;dashed=0;fontColor=#4277BB;labelBackgroundColor=#ffffff;fontSize=12;spacingTop=3;image;image=img/lib/ibm/users/sensor.svg;strokeWidth=2;" vertex="1" parent="2vlhUb15L5bQYwvKjpp_-80">
          <mxGeometry x="164.5" width="7.34375" height="7.34375" as="geometry"/>
        </mxCell>
        <mxCell id="2vlhUb15L5bQYwvKjpp_-90" value="" style="aspect=fixed;perimeter=ellipsePerimeter;html=1;align=center;shadow=0;dashed=0;fontColor=#4277BB;labelBackgroundColor=#ffffff;fontSize=12;spacingTop=3;image;image=img/lib/ibm/users/sensor.svg;strokeWidth=2;" vertex="1" parent="2vlhUb15L5bQYwvKjpp_-80">
          <mxGeometry x="188" width="7.34375" height="7.34375" as="geometry"/>
        </mxCell>
        <mxCell id="2vlhUb15L5bQYwvKjpp_-91" value="" style="group" vertex="1" connectable="0" parent="2vlhUb15L5bQYwvKjpp_-24">
          <mxGeometry y="94" width="218.84375" height="7.34375" as="geometry"/>
        </mxCell>
        <mxCell id="2vlhUb15L5bQYwvKjpp_-92" value="" style="aspect=fixed;perimeter=ellipsePerimeter;html=1;align=center;shadow=0;dashed=0;fontColor=#4277BB;labelBackgroundColor=#ffffff;fontSize=12;spacingTop=3;image;image=img/lib/ibm/users/sensor.svg;strokeWidth=2;" vertex="1" parent="2vlhUb15L5bQYwvKjpp_-91">
          <mxGeometry x="94" width="7.34375" height="7.34375" as="geometry"/>
        </mxCell>
        <mxCell id="2vlhUb15L5bQYwvKjpp_-93" value="" style="aspect=fixed;perimeter=ellipsePerimeter;html=1;align=center;shadow=0;dashed=0;fontColor=#4277BB;labelBackgroundColor=#ffffff;fontSize=12;spacingTop=3;image;image=img/lib/ibm/users/sensor.svg;strokeWidth=2;" vertex="1" parent="2vlhUb15L5bQYwvKjpp_-91">
          <mxGeometry width="7.34375" height="7.34375" as="geometry"/>
        </mxCell>
        <mxCell id="2vlhUb15L5bQYwvKjpp_-94" value="" style="aspect=fixed;perimeter=ellipsePerimeter;html=1;align=center;shadow=0;dashed=0;fontColor=#4277BB;labelBackgroundColor=#ffffff;fontSize=12;spacingTop=3;image;image=img/lib/ibm/users/sensor.svg;strokeWidth=2;" vertex="1" parent="2vlhUb15L5bQYwvKjpp_-91">
          <mxGeometry x="23.5" width="7.34375" height="7.34375" as="geometry"/>
        </mxCell>
        <mxCell id="2vlhUb15L5bQYwvKjpp_-95" value="" style="aspect=fixed;perimeter=ellipsePerimeter;html=1;align=center;shadow=0;dashed=0;fontColor=#4277BB;labelBackgroundColor=#ffffff;fontSize=12;spacingTop=3;image;image=img/lib/ibm/users/sensor.svg;strokeWidth=2;" vertex="1" parent="2vlhUb15L5bQYwvKjpp_-91">
          <mxGeometry x="47" width="7.34375" height="7.34375" as="geometry"/>
        </mxCell>
        <mxCell id="2vlhUb15L5bQYwvKjpp_-96" value="" style="aspect=fixed;perimeter=ellipsePerimeter;html=1;align=center;shadow=0;dashed=0;fontColor=#4277BB;labelBackgroundColor=#ffffff;fontSize=12;spacingTop=3;image;image=img/lib/ibm/users/sensor.svg;strokeWidth=2;" vertex="1" parent="2vlhUb15L5bQYwvKjpp_-91">
          <mxGeometry x="70.5" width="7.34375" height="7.34375" as="geometry"/>
        </mxCell>
        <mxCell id="2vlhUb15L5bQYwvKjpp_-97" value="" style="aspect=fixed;perimeter=ellipsePerimeter;html=1;align=center;shadow=0;dashed=0;fontColor=#4277BB;labelBackgroundColor=#ffffff;fontSize=12;spacingTop=3;image;image=img/lib/ibm/users/sensor.svg;strokeWidth=2;" vertex="1" parent="2vlhUb15L5bQYwvKjpp_-91">
          <mxGeometry x="211.5" width="7.34375" height="7.34375" as="geometry"/>
        </mxCell>
        <mxCell id="2vlhUb15L5bQYwvKjpp_-98" value="" style="aspect=fixed;perimeter=ellipsePerimeter;html=1;align=center;shadow=0;dashed=0;fontColor=#4277BB;labelBackgroundColor=#ffffff;fontSize=12;spacingTop=3;image;image=img/lib/ibm/users/sensor.svg;strokeWidth=2;" vertex="1" parent="2vlhUb15L5bQYwvKjpp_-91">
          <mxGeometry x="117.5" width="7.34375" height="7.34375" as="geometry"/>
        </mxCell>
        <mxCell id="2vlhUb15L5bQYwvKjpp_-99" value="" style="aspect=fixed;perimeter=ellipsePerimeter;html=1;align=center;shadow=0;dashed=0;fontColor=#4277BB;labelBackgroundColor=#ffffff;fontSize=12;spacingTop=3;image;image=img/lib/ibm/users/sensor.svg;strokeWidth=2;" vertex="1" parent="2vlhUb15L5bQYwvKjpp_-91">
          <mxGeometry x="141" width="7.34375" height="7.34375" as="geometry"/>
        </mxCell>
        <mxCell id="2vlhUb15L5bQYwvKjpp_-100" value="" style="aspect=fixed;perimeter=ellipsePerimeter;html=1;align=center;shadow=0;dashed=0;fontColor=#4277BB;labelBackgroundColor=#ffffff;fontSize=12;spacingTop=3;image;image=img/lib/ibm/users/sensor.svg;strokeWidth=2;" vertex="1" parent="2vlhUb15L5bQYwvKjpp_-91">
          <mxGeometry x="164.5" width="7.34375" height="7.34375" as="geometry"/>
        </mxCell>
        <mxCell id="2vlhUb15L5bQYwvKjpp_-101" value="" style="aspect=fixed;perimeter=ellipsePerimeter;html=1;align=center;shadow=0;dashed=0;fontColor=#4277BB;labelBackgroundColor=#ffffff;fontSize=12;spacingTop=3;image;image=img/lib/ibm/users/sensor.svg;strokeWidth=2;" vertex="1" parent="2vlhUb15L5bQYwvKjpp_-91">
          <mxGeometry x="188" width="7.34375" height="7.34375" as="geometry"/>
        </mxCell>
        <mxCell id="2vlhUb15L5bQYwvKjpp_-106" value="" style="rounded=0;whiteSpace=wrap;html=1;strokeWidth=2;glass=0;shadow=0;comic=0;aspect=fixed;" vertex="1" parent="1">
          <mxGeometry x="500" y="190" width="235" height="141" as="geometry"/>
        </mxCell>
        <mxCell id="2vlhUb15L5bQYwvKjpp_-107" value="" style="dashed=0;outlineConnect=0;html=1;align=center;labelPosition=center;verticalLabelPosition=bottom;verticalAlign=top;shape=mxgraph.weblogos.json_2;rounded=0;strokeColor=#000000;fillColor=#000000;" vertex="1" parent="1">
          <mxGeometry x="575" y="195.5" width="80.4" height="25.200000000000003" as="geometry"/>
        </mxCell>
        <mxCell id="2vlhUb15L5bQYwvKjpp_-108" value="" style="verticalLabelPosition=bottom;html=1;verticalAlign=top;align=center;strokeColor=none;fillColor=#000000;shape=mxgraph.azure.code_file;pointerEvents=1;rounded=0;aspect=fixed;" vertex="1" parent="1">
          <mxGeometry x="572" y="230" width="86" height="90" as="geometry"/>
        </mxCell>
      </root>
    </mxGraphModel>
  </diagram>
</mxfile>
